<svg width="274" height="274" xmlns="http://www.w3.org/2000/svg" xmlns:xlink="http://www.w3.org/1999/xlink" xml:space="preserve" overflow="hidden"><g transform="translate(-503 -59)"><path d="M640 310.167C576.946 310.167 525.833 259.054 525.833 196 525.833 132.946 576.946 81.8333 640 81.8333 703.054 81.8333 754.167 132.946 754.167 196 754.167 259.054 703.054 310.167 640 310.167ZM640 287.333C690.442 287.333 731.333 246.442 731.333 196 731.333 145.558 690.442 104.667 640 104.667 589.558 104.667 548.667 145.558 548.667 196 548.667 246.442 589.558 287.333 640 287.333ZM582.917 207.417 685.667 207.417 685.667 230.25 640 230.25 640 264.5 582.917 207.417ZM640 161.75 640 127.5 697.083 184.583 594.333 184.583 594.333 161.75 640 161.75Z"/></g></svg>